# xmcd
# Copyright (C) 1995-1998 Ti Kan
#
# Track frame offsets:
#       150
#       22147
#       41137
#       66450
#       88104
#       110722
#       135022
#       156172
#       179657
#       195172
#       214950
#
# Disc length: 3137 seconds
#
# Revision: 0
# Processed by: cddbd v1.4PL0 Copyright (c) Steve Scherf et al.
# Submitted via: CD-Transfer v1.0
#
DISCID=a00c3f0b
DTITLE=Jazzfrappé - Chauf Mi Up!
DYEAR=1999
DGENRE=
TTITLE0=Chauf Mi Up!
TTITLE1=Q-Emma
TTITLE2=E Neue Stärn
TTITLE3=Ech Has Of Dech
TTITLE4=Du Chasch Füüge
TTITLE5=D' Frau Im Mond
TTITLE6=Hesch G' Wösst?
TTITLE7=Mer Send Jazzfrappé
TTITLE8=Nimm Es H...
TTITLE9=De Hans Im Schnäggeloch
TTITLE10=Halt - Mer Send Gäge G' Gwalt
EXTD=
EXTT0=
EXTT1=
EXTT2=
EXTT3=
EXTT4=
EXTT5=
EXTT6=
EXTT7=
EXTT8=
EXTT9=
EXTT10=
PLAYORDER=
